<svg xmlns="http://www.w3.org/2000/svg" width="64" height="64" shape-rendering="geometricPrecision" text-rendering="geometricPrecision" image-rendering="optimizeQuality" fill-rule="evenodd" clip-rule="evenodd" viewBox="0 0 640 640"><path fill-rule="nonzero" d="M320-.012h.012v.083c88.395.012 168.392 35.8 226.255 93.662 57.863 57.863 93.65 137.848 93.662 226.231H640V320h-.07c-.012 88.395-35.8 168.404-93.663 226.255-57.863 57.863-137.848 93.65-226.243 93.663V640H319.988v-.082c-88.383-.012-168.392-35.8-226.243-93.663C35.882 488.392.095 408.407.083 320.012H0V319.976h.083c0-88.383 35.8-168.38 93.662-226.243C151.608 35.871 231.593.083 319.976.071v-.083H320zM140.836 239.07c-5.67-6.98-4.618-17.232 2.362-22.914 6.98-5.669 17.233-4.618 22.914 2.363 1.063 1.31 2.48 2.68 4.193 4.086 8.445 6.922 21.402 11.552 35.15 12.272 13.535.72 27.473-2.421 37.996-10.984 2.15-1.736 4.24-3.827 6.249-6.296 5.716-6.968 16.004-7.996 22.972-2.29 6.98 5.704 8.008 15.991 2.303 22.972-3.271 3.992-6.956 7.618-10.972 10.89-17.386 14.138-39.343 19.358-60.214 18.26-20.645-1.099-40.618-8.469-54.166-19.56a61.882 61.882 0 0 1-8.787-8.799zm33.863 220.207c-4.3 7.89-14.186 10.807-22.076 6.508-7.901-4.3-10.807-14.185-6.507-22.075 21.366-39.178 54.803-67.087 92.918-83.564 29.22-12.626 61.194-18.52 92.517-17.599 31.56.934 62.587 8.753 89.67 23.54 31.548 17.209 57.733 43.772 73.312 79.808 3.567 8.244-.236 17.823-8.48 21.378-8.256 3.556-17.823-.236-21.378-8.48-12.497-28.89-33.58-50.245-59.02-64.123-22.525-12.283-48.474-18.791-75.002-19.583-26.728-.791-53.941 4.217-78.733 14.93-31.748 13.724-59.54 36.862-77.221 69.26zM365.036 239.07c-5.67-6.98-4.619-17.232 2.362-22.914 6.98-5.669 17.232-4.618 22.914 2.363 1.063 1.31 2.48 2.68 4.192 4.086 8.445 6.922 21.402 11.552 35.15 12.272 13.536.72 27.473-2.421 37.997-10.984 2.15-1.736 4.24-3.827 6.248-6.296 5.717-6.968 16.004-7.996 22.973-2.29 6.98 5.704 8.008 15.991 2.303 22.972-3.272 3.992-6.957 7.618-10.973 10.89-17.386 14.138-39.343 19.358-60.213 18.26-20.646-1.099-40.619-8.469-54.166-19.56a61.882 61.882 0 0 1-8.787-8.799zM320.01 40.75v.082h-.035v-.083c-76.997.012-146.789 31.3-197.353 81.863-50.575 50.564-81.851 120.356-81.863 197.365h.082V320.013h-.082c.012 77.009 31.288 146.8 81.851 197.365 50.576 50.563 120.368 81.851 197.376 81.863v-.083H320.023v.083c77.008-.012 146.8-31.3 197.365-81.863 50.563-50.564 81.851-120.356 81.851-197.376h-.07V319.966h.07c0-76.997-31.288-146.789-81.84-197.353C466.824 72.05 397.031 40.762 320.011 40.75z"/></svg>