<svg xmlns="http://www.w3.org/2000/svg" width="64" height="64" shape-rendering="geometricPrecision" text-rendering="geometricPrecision" image-rendering="optimizeQuality" fill-rule="evenodd" clip-rule="evenodd" viewBox="0 0 640 640"><path fill-rule="nonzero" d="M320-.012h.012v.083c88.395.012 168.392 35.8 226.255 93.662 57.863 57.863 93.65 137.848 93.662 226.231H640V320h-.07c-.012 88.395-35.8 168.404-93.663 226.255-57.863 57.863-137.848 93.65-226.243 93.663V640H319.988v-.082c-88.383-.012-168.392-35.8-226.243-93.663C35.882 488.392.095 408.407.083 320.012H0V319.976h.083c0-88.383 35.8-168.38 93.662-226.243C151.608 35.871 231.593.083 319.976.071v-.083H320zm45.036 239.082c-5.67-6.98-4.618-17.232 2.362-22.914 6.98-5.669 17.233-4.618 22.914 2.363 1.063 1.31 2.48 2.68 4.193 4.086 8.445 6.922 21.402 11.552 35.15 12.272 13.535.72 27.473-2.421 37.996-10.984 2.15-1.736 4.24-3.827 6.248-6.296 5.717-6.968 16.005-7.996 22.973-2.29 6.98 5.704 8.008 15.991 2.303 22.972-3.271 3.992-6.956 7.618-10.972 10.89-17.386 14.138-39.343 19.358-60.214 18.26-20.645-1.099-40.618-8.469-54.166-19.56a61.882 61.882 0 0 1-8.787-8.799zM203.955 457.931c-8.988.378-16.595-6.59-16.985-15.579-.377-8.988 6.591-16.583 15.58-16.972l.2-.012c10.618-.473 48.485-.319 91.159-.142 56.74.225 122.163.496 141.899-.697 8.988-.531 16.7 6.331 17.22 15.32.532 8.976-6.318 16.7-15.307 17.22-19.866 1.205-86.316.933-143.943.697-41.93-.165-79.123-.319-89.623.153l-.2.012zm-63.13-218.86c-5.67-6.981-4.619-17.233 2.362-22.915 6.98-5.669 17.232-4.618 22.913 2.363 1.063 1.31 2.48 2.68 4.193 4.086 8.445 6.922 21.402 11.552 35.15 12.272 13.536.72 27.473-2.421 37.997-10.984 2.15-1.736 4.24-3.827 6.248-6.296 5.716-6.968 16.004-7.996 22.973-2.29 6.98 5.704 8.007 15.991 2.303 22.972-3.272 3.992-6.957 7.618-10.973 10.89-17.386 14.138-39.343 19.358-60.213 18.26-20.646-1.099-40.619-8.469-54.166-19.56a61.882 61.882 0 0 1-8.788-8.799zM320.01 40.748v.083h-.035v-.083c-76.997.012-146.79 31.3-197.353 81.863C72.047 173.176 40.77 242.968 40.76 319.977h.082V320.013h-.082c.011 77.009 31.287 146.8 81.851 197.365 50.575 50.563 120.368 81.851 197.376 81.863v-.083h.035v.083c77.01-.012 146.801-31.3 197.365-81.863 50.564-50.564 81.852-120.356 81.852-197.376h-.071V319.966h.07c0-76.997-31.287-146.789-81.839-197.353C466.824 72.05 397.031 40.762 320.011 40.75z"/></svg>