<svg xmlns="http://www.w3.org/2000/svg" width="64" height="64" shape-rendering="geometricPrecision" text-rendering="geometricPrecision" image-rendering="optimizeQuality" fill-rule="evenodd" clip-rule="evenodd" viewBox="0 0 640 640"><path d="M320-.012c176.707 0 320 143.305 320 320C640 496.695 496.707 640 320 640 143.305 640 0 496.695 0 319.988c0-176.695 143.305-320 320-320zm48.107 233.566c-6.06-7.453-4.925-18.413 2.527-24.473 7.453-6.059 18.402-4.937 24.461 2.516 1.146 1.406 2.658 2.87 4.477 4.37 9.035 7.394 22.878 12.331 37.56 13.11 14.456.769 29.338-2.586 40.583-11.728 2.29-1.866 4.523-4.098 6.685-6.732 6.094-7.441 17.079-8.54 24.531-2.445 7.453 6.095 8.552 17.079 2.457 24.532-3.496 4.264-7.43 8.138-11.717 11.634-18.567 15.095-42.024 20.681-64.311 19.5-22.064-1.157-43.406-9.036-57.863-20.882a66.029 66.029 0 0 1-9.39-9.402zM164.8 468.774c-4.595 8.432-15.154 11.539-23.587 6.944-8.433-4.594-11.551-15.154-6.957-23.587 22.831-41.847 58.548-71.646 99.25-89.245 31.216-13.5 65.374-19.795 98.835-18.803 33.71.992 66.852 9.354 95.789 25.146 33.686 18.378 61.654 46.76 78.308 85.253 3.792 8.81-.26 19.027-9.07 22.83-8.812 3.804-19.04-.26-22.832-9.059-13.346-30.862-35.87-53.67-63.048-68.493-24.047-13.122-51.78-20.079-80.103-20.917-28.56-.839-57.627 4.5-84.107 15.945-33.91 14.658-63.604 39.378-82.478 73.985zm-36.178-235.22c-6.059-7.453-4.925-18.413 2.528-24.473 7.453-6.059 18.402-4.937 24.46 2.516 1.146 1.406 2.658 2.87 4.489 4.37 9.024 7.394 22.866 12.331 37.548 13.11 14.457.769 29.339-2.586 40.583-11.728 2.291-1.866 4.524-4.098 6.685-6.732 6.095-7.441 17.079-8.54 24.532-2.445 7.453 6.095 8.551 17.079 2.457 24.532-3.497 4.264-7.43 8.138-11.717 11.634-18.567 15.095-42.024 20.681-64.312 19.5-22.063-1.157-43.394-9.036-57.863-20.882a66.029 66.029 0 0 1-9.39-9.402z"/></svg>