<svg xmlns="http://www.w3.org/2000/svg" width="64" height="64" shape-rendering="geometricPrecision" text-rendering="geometricPrecision" image-rendering="optimizeQuality" fill-rule="evenodd" clip-rule="evenodd" viewBox="0 0 640 640"><path fill-rule="nonzero" d="M320-.012h.012v.083c88.395.012 168.404 35.8 226.255 93.662 57.863 57.863 93.65 137.848 93.662 226.243h.083V320.012h-.083c-.011 88.395-35.8 168.404-93.662 226.255-57.863 57.863-137.848 93.65-226.243 93.663v.082H319.988v-.082c-88.394-.012-168.404-35.8-226.255-93.663C35.87 488.404.083 408.419.071 320.024h-.083V319.988h.083c.012-88.394 35.8-168.392 93.662-226.255C151.596 35.871 231.581.083 319.976.071v-.083H320zm-173.896 404.51c-4.3-7.89-1.394-17.777 6.508-22.076 7.89-4.3 17.776-1.394 22.075 6.508 17.681 32.398 45.473 55.536 77.221 69.26 24.792 10.713 52.005 15.71 78.746 14.918 26.527-.78 52.477-7.287 75-19.583 25.442-13.878 46.525-35.22 59.02-64.11 3.556-8.245 13.123-12.048 21.38-8.493 8.243 3.567 12.046 13.134 8.48 21.378-15.58 36.048-41.765 62.611-73.312 79.82-27.083 14.788-58.111 22.607-89.67 23.54-31.336.921-63.309-4.973-92.53-17.61-38.114-16.465-71.54-44.375-92.918-83.553zm19.996-167.14c-5.68 6.98-15.933 8.03-22.913 2.361-6.98-5.669-8.032-15.933-2.363-22.901a61.968 61.968 0 0 1 8.788-8.812c13.547-11.09 33.52-18.46 54.166-19.547 20.87-1.11 42.827 4.122 60.213 18.26 4.016 3.26 7.701 6.886 10.973 10.878 5.705 6.98 4.677 17.268-2.303 22.973-6.969 5.716-17.257 4.689-22.973-2.292-2.008-2.456-4.099-4.547-6.248-6.295-10.524-8.563-24.461-11.705-37.997-10.984-13.748.732-26.705 5.35-35.15 12.271-1.712 1.406-3.13 2.776-4.193 4.087zm224.211 0c-5.68 6.98-15.933 8.03-22.913 2.361-6.98-5.669-8.032-15.933-2.363-22.901a61.968 61.968 0 0 1 8.788-8.812c13.547-11.09 33.52-18.46 54.178-19.547 20.858-1.11 42.815 4.122 60.201 18.26 4.016 3.26 7.701 6.886 10.973 10.878 5.705 6.98 4.677 17.268-2.303 22.973-6.969 5.716-17.257 4.689-22.973-2.292-2.008-2.456-4.099-4.547-6.248-6.295-10.524-8.563-24.461-11.705-37.997-10.984-13.748.732-26.705 5.35-35.15 12.271-1.712 1.406-3.13 2.776-4.193 4.087zm-70.3-196.61v.083h-.035v-.083c-77.009.012-146.801 31.3-197.365 81.863-50.564 50.564-81.852 120.356-81.863 197.376h.082V320.023h-.082c.011 77.009 31.3 146.8 81.863 197.365 50.563 50.563 120.356 81.851 197.376 81.863v-.083h.035v.083c77.009-.012 146.801-31.3 197.365-81.863 50.564-50.564 81.852-120.356 81.863-197.376h-.082V319.976h.082c-.011-77.008-31.3-146.8-81.851-197.365-50.575-50.563-120.368-81.851-197.388-81.863z"/></svg>